<?xml version="1.0" encoding="UTF-8" standalone="no"?>
<!-- Creator: CorelDRAW 2019 (64-Bit) -->

<svg
   xmlns:dc="http://purl.org/dc/elements/1.1/"
   xmlns:cc="http://creativecommons.org/ns#"
   xmlns:rdf="http://www.w3.org/1999/02/22-rdf-syntax-ns#"
   xmlns:svg="http://www.w3.org/2000/svg"
   xmlns="http://www.w3.org/2000/svg"
   xmlns:sodipodi="http://sodipodi.sourceforge.net/DTD/sodipodi-0.dtd"
   xmlns:inkscape="http://www.inkscape.org/namespaces/inkscape"
   xml:space="preserve"
   width="330"
   height="71"
   version="1.0"
   style="clip-rule:evenodd;fill-rule:evenodd;image-rendering:optimizeQuality;shape-rendering:geometricPrecision;text-rendering:geometricPrecision"
   viewBox="0 0 330 71"
   id="svg17"
   sodipodi:docname="cv_logo.svg"
   inkscape:version="0.92.4 (5da689c313, 2019-01-14)"><metadata
   id="metadata21"><rdf:RDF><cc:Work
       rdf:about=""><dc:format>image/svg+xml</dc:format><dc:type
         rdf:resource="http://purl.org/dc/dcmitype/StillImage" /><dc:title></dc:title></cc:Work></rdf:RDF></metadata><sodipodi:namedview
   pagecolor="#ffffff"
   bordercolor="#666666"
   borderopacity="1"
   objecttolerance="10"
   gridtolerance="10"
   guidetolerance="10"
   inkscape:pageopacity="0"
   inkscape:pageshadow="2"
   inkscape:window-width="1920"
   inkscape:window-height="1013"
   id="namedview19"
   showgrid="false"
   inkscape:zoom="1.7842105"
   inkscape:cx="218.01825"
   inkscape:cy="64.06873"
   inkscape:window-x="-9"
   inkscape:window-y="-9"
   inkscape:window-maximized="1"
   inkscape:current-layer="svg17" />
 <defs
   id="defs4">
  <style
   type="text/css"
   id="style2">
   <![CDATA[
    .fil0 {fill:#FEFEFE}
    .fil1 {fill:#FEFEFE;fill-rule:nonzero}
    .fil3 {fill:#FEFEFE;fill-rule:nonzero}
    .fil2 {fill:#E3E3E3;fill-rule:nonzero}
   ]]>
  </style>
 
  
  
 
   
   
   
   
  </defs>
 <g
   id="g848"><path
     style="fill:#008dd2;stroke-width:1.38461494;fill-opacity:1"
     inkscape:connector-curvature="0"
     id="path7"
     d="m 75.720031,2.2692424 16.32461,8.3076896 16.338459,8.307689 V 35.5 52.115379 L 92.044641,60.423068 75.720031,68.730758 59.381575,60.423068 43.04312,52.115379 V 35.5 18.884621 L 59.381575,10.576932 Z M 52.555424,23.287697 v 24.424606 c 0.166154,0.11077 0.484615,0.263077 0.678461,0.346154 0.595385,0.276923 1.412307,0.733846 2.035384,1.038461 0.456923,0.221539 0.927692,0.456923 1.370769,0.692308 1.315384,0.692307 2.783076,1.384615 4.112306,2.076922 0.927692,0.484615 1.827692,0.927692 2.741538,1.398461 3.669229,1.855384 7.269228,3.683076 10.979996,5.552306 0.221538,0.110769 0.443077,0.221538 0.664615,0.346154 0.72,0.387692 0.456923,0.318461 1.412307,-0.152308 l 7.546151,-3.821537 c 0.456923,-0.221539 0.913846,-0.484615 1.370769,-0.692308 0.747692,-0.332307 1.938461,-0.983076 2.741538,-1.384614 0.443076,-0.221539 0.927692,-0.456923 1.370768,-0.692308 1.301538,-0.692307 2.824615,-1.398461 4.112307,-2.090768 l 2.04923,-1.038462 c 0.207692,-0.09692 0.498461,-0.221538 0.692307,-0.346153 -0.01385,-0.152308 -1.633845,-3.447691 -1.744615,-3.655384 -0.110769,-0.221538 -1.68923,-3.544614 -1.786153,-3.641537 -0.304615,0.138462 -0.664615,0.346154 -0.996923,0.498462 l -3.032306,1.536922 c -0.650769,0.332308 -1.370769,0.664615 -2.021538,1.024615 -0.636923,0.36 -1.384615,0.678461 -2.021538,1.024615 -0.678461,0.36 -1.343076,0.692308 -2.021537,1.024615 -0.664616,0.332308 -1.370769,0.678461 -2.035384,1.024615 -0.650769,0.36 -1.384615,0.678461 -2.021538,1.024615 l -3.032307,1.523077 C 75.609262,50.343072 61.541575,43.184613 61.541575,43.184613 61.236959,43.032305 60.793883,42.838459 60.530806,42.658459 V 28.341541 l 1.993845,-1.024615 c 0.692308,-0.346154 1.356923,-0.692308 2.035384,-1.024615 1.315384,-0.664615 2.658461,-1.356923 4.029229,-2.04923 1.384615,-0.692308 2.658461,-1.32923 4.02923,-2.035384 L 75.6508,20.684621 c 0.138462,-0.05539 0.387693,0.138461 0.512308,0.193846 2.201538,1.052307 4.403075,2.284614 6.549228,3.323075 0.692308,0.318462 1.356923,0.692308 2.035384,1.024615 1.287692,0.623077 2.713846,1.370769 4.02923,2.035384 0.678461,0.332308 1.343076,0.706154 2.021537,1.024615 0.304616,0.138462 1.841538,0.969231 2.076923,1.024615 0.08308,-0.276923 0.290769,-0.623076 0.415384,-0.899999 l 0.886154,-1.827692 c 0.221538,-0.456923 2.173845,-4.430768 2.187691,-4.555383 l -8.19692,-4.153845 C 87.33695,17.48616 86.284643,16.918468 85.426182,16.475391 84.49849,16.018468 83.612336,15.547699 82.69849,15.104623 81.798491,14.6477 80.884645,14.163084 79.956953,13.720008 l -1.68923,-0.858462 c -0.761539,-0.387692 -1.744615,-0.858461 -2.423076,-1.232307 -0.193847,-0.110769 -0.249231,-0.01385 -0.692308,0.221539 -1.495384,0.78923 -3.253845,1.633845 -4.790767,2.409229 -0.47077,0.235385 -0.913846,0.498462 -1.370769,0.706154 -0.913846,0.415385 -1.827692,0.941538 -2.741538,1.384615 -0.443076,0.207692 -0.927692,0.456923 -1.370768,0.692307 -0.456923,0.235385 -0.913846,0.456923 -1.370769,0.692308 -0.9,0.470769 -1.827692,0.913846 -2.727692,1.370769 z"
     class="fil0" /><path
     style="fill:#008dd2;fill-rule:nonzero;stroke-width:1.38461494;fill-opacity:1"
     inkscape:connector-curvature="0"
     id="path9"
     d="m 128.32155,44.195382 c -3.36461,0 -6.17538,-1.135385 -8.44615,-3.392307 -2.24308,-2.270768 -3.36461,-5.095383 -3.36461,-8.473843 0,-3.37846 1.12153,-6.203075 3.36461,-8.432305 2.24308,-2.284614 5.05384,-3.433845 8.44615,-3.433845 3.42,0 6.20308,1.246154 8.33538,3.710768 l -2.09077,2.035384 c -1.63384,-1.966153 -3.71076,-2.94923 -6.24461,-2.94923 -2.52,0 -4.62461,0.844615 -6.31384,2.533846 -1.67539,1.675384 -2.50616,3.849229 -2.50616,6.535382 0,2.686153 0.83077,4.859998 2.50616,6.535382 1.68923,1.68923 3.79384,2.533845 6.31384,2.533845 2.63077,0 4.92923,-1.107691 6.88154,-3.323075 l 2.11846,2.04923 c -1.08,1.301538 -2.39539,2.298461 -3.96,3.004614 -1.56462,0.706154 -3.25385,1.066154 -5.04,1.066154 z m 11.03538,-8.279998 c 0,-2.395383 0.74769,-4.375383 2.24308,-5.939997 1.52307,-1.564615 3.44769,-2.34 5.74615,-2.34 2.31231,0 4.20923,0.775385 5.70461,2.34 1.52308,1.564614 2.28462,3.544614 2.28462,5.939997 0,2.40923 -0.76154,4.38923 -2.28462,5.926152 -1.49538,1.564615 -3.3923,2.353846 -5.70461,2.353846 -2.29846,0 -4.22308,-0.789231 -5.74615,-2.353846 -1.49539,-1.564615 -2.24308,-3.544614 -2.24308,-5.926152 z m 2.92154,0 c 0,1.661538 0.48461,3.018461 1.45385,4.056922 0.96923,1.038461 2.17384,1.550769 3.61384,1.550769 1.44,0 2.64461,-0.512308 3.61384,-1.550769 0.96924,-1.038461 1.4677,-2.395384 1.4677,-4.056922 0,-1.647691 -0.49846,-2.990768 -1.4677,-4.029229 -0.99692,-1.066153 -2.20153,-1.592307 -3.61384,-1.592307 -1.41231,0 -2.61692,0.526154 -3.61384,1.592307 -0.96924,1.038461 -1.45385,2.381538 -1.45385,4.029229 z m 22.70768,5.607691 c 1.44,0 2.60308,-0.512308 3.51693,-1.550769 0.95538,-1.038461 1.42615,-2.395384 1.42615,-4.056922 0,-1.633845 -0.47077,-2.976922 -1.42615,-4.029229 -0.9277,-1.066153 -2.10462,-1.592307 -3.51693,-1.592307 -1.39846,0 -2.57538,0.526154 -3.51692,1.592307 -0.95538,1.052307 -1.44,2.395384 -1.44,4.029229 0,1.647692 0.48462,2.990769 1.44,4.02923 0.94154,1.052307 2.11846,1.578461 3.51692,1.578461 z m -0.48461,2.672307 c -2.02154,0 -3.76615,-0.803077 -5.23385,-2.40923 -1.42615,-1.633846 -2.14615,-3.586153 -2.14615,-5.870768 0,-2.284614 0.72,-4.236921 2.14615,-5.870767 1.4677,-1.606153 3.21231,-2.40923 5.23385,-2.40923 1.14923,0 2.18769,0.235385 3.12923,0.733846 0.94154,0.484615 1.66154,1.121538 2.17384,1.924615 h 0.12462 l -0.12462,-2.146153 V 20.97539 h 2.92154 v 22.707684 h -2.79692 v -2.159999 h -0.12462 c -0.5123,0.803076 -1.2323,1.453845 -2.17384,1.938461 -0.94154,0.484615 -1.98,0.733846 -3.12923,0.733846 z m 18.74768,0 c -2.28461,0 -4.16769,-0.789231 -5.63538,-2.353846 -1.48154,-1.564615 -2.22923,-3.544614 -2.22923,-5.926152 0,-2.367691 0.72,-4.34769 2.16,-5.912305 1.44,-1.578461 3.28154,-2.367692 5.52461,-2.367692 2.29847,0 4.14,0.747692 5.49693,2.22923 1.37076,1.495384 2.04923,3.586153 2.04923,6.272306 l -0.0277,0.318461 h -12.2123 c 0.0415,1.523077 0.54,2.741538 1.52308,3.66923 0.96923,0.941538 2.1323,1.398461 3.47538,1.398461 1.86923,0 3.32308,-0.927692 4.38923,-2.783076 l 2.60307,1.259999 c -0.70615,1.315385 -1.67538,2.34 -2.90769,3.087692 -1.2323,0.733846 -2.64461,1.107692 -4.20923,1.107692 z m -4.6523,-10.149228 h 8.90307 c -0.0831,-1.079999 -0.51231,-1.979999 -1.31538,-2.686153 -0.78923,-0.706153 -1.85539,-1.066153 -3.18462,-1.066153 -1.09384,0 -2.04923,0.346154 -2.83846,1.024615 -0.78923,0.664615 -1.31538,1.578461 -1.56461,2.727691 z m 22.22307,9.63692 h -2.90769 l -6.28616,-15.535379 h 3.17077 l 4.56923,12.04615 h 0.0692 l 4.62462,-12.04615 h 3.11538 z m 12.0323,-20.907685 c 0,0.581538 -0.20769,1.066154 -0.60923,1.467692 -0.40154,0.401538 -0.88615,0.595384 -1.45385,0.595384 -0.56769,0 -1.06615,-0.193846 -1.46769,-0.595384 -0.40154,-0.401538 -0.59538,-0.886154 -0.59538,-1.467692 0,-0.567692 0.19384,-1.052307 0.59538,-1.453846 0.40154,-0.401538 0.9,-0.60923 1.46769,-0.60923 0.5677,0 1.05231,0.207692 1.45385,0.60923 0.40154,0.401539 0.60923,0.886154 0.60923,1.453846 z m -0.60923,5.372306 v 15.535379 h -2.92154 V 28.147695 Z m 10.78615,13.37538 c 1.44,0 2.61692,-0.512308 3.51692,-1.550769 0.95539,-1.038461 1.42616,-2.395384 1.42616,-4.056922 0,-1.633845 -0.47077,-2.976922 -1.42616,-4.029229 -0.92769,-1.066153 -2.10461,-1.592307 -3.51692,-1.592307 -1.39846,0 -2.56154,0.526154 -3.51692,1.592307 -0.95539,1.052307 -1.42615,2.395384 -1.42615,4.029229 0,1.647692 0.47076,2.990769 1.42615,4.02923 0.95538,1.052307 2.11846,1.578461 3.51692,1.578461 z m -0.47077,2.672307 c -2.03538,0 -3.78,-0.803077 -5.23384,-2.40923 -1.44,-1.633846 -2.16,-3.586153 -2.16,-5.870768 0,-2.284614 0.72,-4.236921 2.16,-5.870767 1.45384,-1.606153 3.19846,-2.40923 5.23384,-2.40923 1.13539,0 2.17385,0.235385 3.11538,0.733846 0.94154,0.484615 1.67539,1.121538 2.17385,1.924615 h 0.12462 l -0.12462,-2.146153 V 20.97539 h 2.92154 v 22.707684 h -2.79692 v -2.159999 h -0.12462 c -0.49846,0.803076 -1.23231,1.453845 -2.17385,1.938461 -0.94153,0.484615 -1.97999,0.733846 -3.11538,0.733846 z M 234.32767,20.97539 h 2.90769 v 7.172305 l -0.12462,2.146153 h 0.12462 c 0.45692,-0.761538 1.13538,-1.384615 2.04923,-1.896922 0.92769,-0.512308 1.88308,-0.761539 2.86615,-0.761539 1.91077,0 3.37846,0.54 4.40308,1.633846 1.02461,1.093846 1.53692,2.630768 1.53692,4.63846 v 9.775381 h -2.92154 v -9.193843 c 0,-2.796922 -1.2323,-4.195383 -3.71077,-4.195383 -1.17692,0 -2.18769,0.498461 -2.99076,1.481538 -0.81693,0.983076 -1.23231,2.132307 -1.23231,3.433845 v 8.473843 h -2.90769 z m 31.0846,7.172305 -9.74769,22.389223 h -3.00461 l 3.61384,-7.836921 -6.41076,-14.552302 h 3.17077 l 4.63846,11.159996 h 0.0554 l 4.51384,-11.159996 z m 4.02923,10.772304 c 0,0.761538 0.31846,1.398461 0.96923,1.910768 0.63693,0.512308 1.39846,0.761539 2.25692,0.761539 1.23231,0 2.32616,-0.456923 3.28154,-1.370769 0.96923,-0.9 1.45385,-1.966153 1.45385,-3.198461 -0.91385,-0.719999 -2.18769,-1.079999 -3.80769,-1.079999 -1.19077,0 -2.17385,0.290769 -2.96308,0.858461 -0.80308,0.567692 -1.19077,1.273846 -1.19077,2.118461 z m 3.76615,-11.284612 c 2.16,0 3.86308,0.567692 5.10923,1.730769 1.24616,1.14923 1.86923,2.727691 1.86923,4.735383 v 9.581535 h -2.78307 v -2.159999 h -0.12462 c -1.20461,1.786153 -2.82461,2.672307 -4.8323,2.672307 -1.70308,0 -3.14308,-0.512308 -4.29231,-1.523077 -1.14923,-1.024615 -1.73077,-2.284614 -1.73077,-3.807691 0,-1.606153 0.60923,-2.893845 1.82769,-3.835383 1.21846,-0.955384 2.83846,-1.426153 4.86,-1.426153 1.74462,0 3.17077,0.304615 4.29231,0.941538 v -0.664615 c 0,-1.010769 -0.40154,-1.869231 -1.20462,-2.58923 -0.80307,-0.706154 -1.74461,-1.052308 -2.82461,-1.052308 -1.63385,0 -2.92154,0.678462 -3.87692,2.063077 l -2.56154,-1.62 c 1.41231,-2.035384 3.50307,-3.046153 6.2723,-3.046153 z"
     class="fil1" /><path
     style="fill:#000000;fill-rule:nonzero;stroke-width:1.38461494"
     inkscape:connector-curvature="0"
     id="path11"
     d="m 128.39078,51.423071 v 0.692308 h -0.66461 v 5.552306 h 0.66461 v 0.692307 h -2.16 v -0.692307 h 0.67846 v -5.552306 h -0.67846 v -0.692308 z m 5.16462,6.936921 h -0.80308 v -2.824614 c 0,-1.066154 -0.38769,-1.592308 -1.14923,-1.592308 -0.40154,0 -0.72,0.152308 -0.98308,0.456923 -0.26307,0.29077 -0.38769,0.678462 -0.38769,1.135385 v 2.824614 h -0.80308 v -4.956921 h 0.80308 v 0.816922 h 0.0139 c 0.37384,-0.623076 0.91384,-0.941538 1.63384,-0.941538 0.54,0 0.95539,0.18 1.23231,0.526154 0.29077,0.36 0.44308,0.858461 0.44308,1.523076 z m 1.19076,-0.18 v -0.858461 c 0.42924,0.332307 0.91385,0.484615 1.42616,0.484615 0.69231,0 1.03846,-0.221538 1.03846,-0.692307 0,-0.138462 -0.0277,-0.249231 -0.0831,-0.346154 -0.0554,-0.08308 -0.13846,-0.166154 -0.24923,-0.235385 -0.0969,-0.06923 -0.20769,-0.138461 -0.34615,-0.193846 -0.13846,-0.05538 -0.29077,-0.110769 -0.44308,-0.18 -0.22154,-0.08308 -0.41538,-0.18 -0.58154,-0.263077 -0.16615,-0.08308 -0.30461,-0.179999 -0.41538,-0.304615 -0.11077,-0.110769 -0.19385,-0.235384 -0.24923,-0.373846 -0.0554,-0.138461 -0.0831,-0.304615 -0.0831,-0.498461 0,-0.235385 0.0554,-0.443077 0.15231,-0.623077 0.11077,-0.18 0.24923,-0.318461 0.42923,-0.443077 0.18,-0.124615 0.37384,-0.221538 0.60923,-0.276923 0.22154,-0.05538 0.45692,-0.09692 0.70615,-0.09692 0.41539,0 0.80308,0.08308 1.14923,0.221539 v 0.803076 c -0.37384,-0.235384 -0.78923,-0.36 -1.26,-0.36 -0.1523,0 -0.27692,0.01385 -0.40153,0.05539 -0.12462,0.02769 -0.22154,0.08308 -0.30462,0.138462 -0.0831,0.06923 -0.15231,0.138461 -0.19385,0.221538 -0.0554,0.09692 -0.0831,0.193846 -0.0831,0.290769 0,0.124615 0.0277,0.235385 0.0831,0.318461 0.0415,0.09692 0.11077,0.166154 0.19385,0.235385 0.0969,0.06923 0.20769,0.138462 0.33231,0.193846 0.12461,0.04154 0.27692,0.110769 0.44307,0.166154 0.22154,0.08308 0.41539,0.18 0.58154,0.263077 0.18,0.09692 0.33231,0.193846 0.44308,0.304615 0.12461,0.110769 0.22154,0.235385 0.29077,0.387692 0.0692,0.138462 0.0969,0.318462 0.0969,0.512308 0,0.24923 -0.0554,0.456923 -0.16615,0.636923 -0.0969,0.179999 -0.24923,0.332307 -0.42923,0.456922 -0.18,0.11077 -0.38769,0.207693 -0.62308,0.263077 -0.23538,0.05539 -0.48461,0.08308 -0.73385,0.08308 -0.5123,0 -0.95538,-0.09692 -1.32923,-0.290769 z m 5.31693,-0.54 h -0.0138 v 2.990768 h -0.80308 v -7.227689 h 0.80308 v 0.858461 h 0.0138 c 0.38769,-0.650769 0.95538,-0.983077 1.71692,-0.983077 0.63692,0 1.13538,0.221539 1.49538,0.664615 0.36,0.456923 0.54,1.038462 0.54,1.786154 0,0.830769 -0.20769,1.495384 -0.60923,1.993845 -0.40154,0.498462 -0.95538,0.747692 -1.66154,0.747692 -0.63692,0 -1.13538,-0.263077 -1.48153,-0.830769 z m -0.0138,-1.993845 v 0.692307 c 0,0.415385 0.12461,0.761538 0.38769,1.038461 0.27692,0.29077 0.60923,0.429231 1.02462,0.429231 0.47077,0 0.85846,-0.18 1.12153,-0.553846 0.27693,-0.36 0.41539,-0.872307 0.41539,-1.536922 0,-0.553846 -0.12462,-0.983077 -0.38769,-1.301538 -0.24923,-0.304616 -0.59539,-0.47077 -1.03846,-0.47077 -0.45693,0 -0.83077,0.166154 -1.1077,0.484616 -0.27692,0.318461 -0.41538,0.733846 -0.41538,1.218461 z m 5.42769,-3.503076 c -0.13846,0 -0.26308,-0.04154 -0.36,-0.138461 -0.0969,-0.09692 -0.15231,-0.221539 -0.15231,-0.373846 0,-0.152308 0.0554,-0.276923 0.15231,-0.373846 0.0969,-0.09692 0.22154,-0.138462 0.36,-0.138462 0.15231,0 0.27692,0.04154 0.37385,0.138462 0.11077,0.09692 0.1523,0.221538 0.1523,0.373846 0,0.138461 -0.0415,0.263076 -0.1523,0.359999 -0.0969,0.09692 -0.22154,0.152308 -0.37385,0.152308 z m 0.38769,6.216921 h -0.78923 v -4.956921 h 0.78923 z m 4.19539,-4.153845 c -0.13847,-0.110769 -0.33231,-0.152307 -0.59539,-0.152307 -0.34615,0 -0.62308,0.152307 -0.85846,0.470769 -0.22154,0.318461 -0.33231,0.761538 -0.33231,1.301538 v 2.533845 h -0.80307 v -4.956921 h 0.80307 v 1.024615 h 0.0138 c 0.11077,-0.346154 0.29077,-0.623077 0.52615,-0.816923 0.22154,-0.193846 0.48462,-0.304615 0.77539,-0.304615 0.20769,0 0.36,0.02769 0.47077,0.06923 z m 1.27384,-2.063076 c -0.15231,0 -0.26308,-0.04154 -0.37385,-0.138461 -0.0969,-0.09692 -0.1523,-0.221539 -0.1523,-0.373846 0,-0.152308 0.0554,-0.276923 0.1523,-0.373846 0.11077,-0.09692 0.22154,-0.138462 0.37385,-0.138462 0.13846,0 0.26308,0.04154 0.36,0.138462 0.11077,0.09692 0.16615,0.221538 0.16615,0.373846 0,0.138461 -0.0554,0.263076 -0.16615,0.359999 -0.0969,0.09692 -0.22154,0.152308 -0.36,0.152308 z m 0.38769,6.216921 h -0.80307 v -4.956921 h 0.80307 z m 5.71846,0 h -0.80307 v -2.824614 c 0,-1.066154 -0.37385,-1.592308 -1.14923,-1.592308 -0.3877,0 -0.72,0.152308 -0.98308,0.456923 -0.26308,0.29077 -0.38769,0.678462 -0.38769,1.135385 v 2.824614 h -0.78923 v -4.956921 h 0.78923 v 0.816922 h 0.0138 c 0.37385,-0.623076 0.91385,-0.941538 1.63385,-0.941538 0.54,0 0.95538,0.18 1.24615,0.526154 0.27692,0.36 0.42923,0.858461 0.42923,1.523076 z m 5.71846,-0.401538 c 0,1.813845 -0.87231,2.727691 -2.60307,2.727691 -0.62308,0 -1.14923,-0.110769 -1.62,-0.346154 v -0.78923 c 0.56769,0.304615 1.09384,0.456923 1.60615,0.456923 1.21846,0 1.82769,-0.636923 1.82769,-1.938461 v -0.54 h -0.0138 c -0.37385,0.636923 -0.94154,0.941538 -1.70308,0.941538 -0.62308,0 -1.12154,-0.207692 -1.49538,-0.650769 -0.37385,-0.443077 -0.5677,-1.038461 -0.5677,-1.786153 0,-0.830769 0.2077,-1.50923 0.60923,-2.007692 0.41539,-0.498461 0.96923,-0.747692 1.66154,-0.747692 0.67846,0 1.16308,0.263077 1.49539,0.803077 h 0.0138 v -0.678461 h 0.78923 z m -0.78923,-1.841538 V 55.38307 c 0,-0.387692 -0.12461,-0.733846 -0.40154,-1.010769 -0.26307,-0.290769 -0.59538,-0.429231 -0.99692,-0.429231 -0.48461,0 -0.87231,0.18 -1.14923,0.54 -0.27692,0.36 -0.41538,0.858462 -0.41538,1.509231 0,0.553845 0.13846,0.996922 0.40153,1.315384 0.26308,0.332307 0.62308,0.498461 1.05231,0.498461 0.45692,0 0.81692,-0.152308 1.09385,-0.470769 0.27692,-0.318461 0.41538,-0.72 0.41538,-1.218461 z m 8.90308,2.243076 h -3.68308 v -6.936921 h 3.51692 v 0.733846 h -2.7 v 2.312307 h 2.50616 v 0.733846 h -2.50616 v 2.423076 h 2.86616 z m 5.45538,0 h -0.78923 v -0.844615 h -0.0277 c -0.36,0.636923 -0.9277,0.955384 -1.70308,0.955384 -0.62308,0 -1.12154,-0.221538 -1.49539,-0.664615 -0.35999,-0.443077 -0.55384,-1.038461 -0.55384,-1.813845 0,-0.816923 0.20769,-1.467692 0.62308,-1.966154 0.41538,-0.498461 0.95538,-0.747692 1.64769,-0.747692 0.67846,0 1.17692,0.263077 1.48154,0.803077 h 0.0277 v -3.059999 h 0.78923 z m -0.78923,-2.243076 V 55.38307 c 0,-0.401538 -0.13846,-0.747692 -0.40154,-1.024615 -0.26308,-0.276923 -0.59539,-0.415385 -1.01077,-0.415385 -0.48461,0 -0.85846,0.18 -1.13538,0.54 -0.27693,0.36 -0.41539,0.844615 -0.41539,1.467692 0,0.581538 0.12462,1.038461 0.40154,1.356923 0.26308,0.332307 0.62308,0.498461 1.06615,0.498461 0.44308,0 0.80308,-0.152308 1.08,-0.470769 0.27693,-0.318461 0.41539,-0.733846 0.41539,-1.218461 z m 6.39692,2.243076 h -0.78923 v -0.78923 h -0.0277 c -0.31847,0.60923 -0.83077,0.899999 -1.52308,0.899999 -1.17692,0 -1.77231,-0.692307 -1.77231,-2.104614 v -2.963076 h 0.78923 v 2.83846 c 0,1.052308 0.40154,1.564615 1.20462,1.564615 0.38769,0 0.70615,-0.138461 0.95538,-0.429231 0.24923,-0.276923 0.37385,-0.650769 0.37385,-1.121538 v -2.852306 h 0.78923 z m 4.98461,-0.221538 c -0.37384,0.221538 -0.83077,0.332307 -1.35692,0.332307 -0.70615,0 -1.27385,-0.221538 -1.70308,-0.678461 -0.44307,-0.470769 -0.65077,-1.066154 -0.65077,-1.799999 0,-0.816923 0.23539,-1.467692 0.69231,-1.966154 0.47077,-0.498461 1.09385,-0.747692 1.88308,-0.747692 0.42923,0 0.81692,0.08308 1.14923,0.249231 v 0.803077 c -0.37385,-0.249231 -0.76154,-0.387693 -1.17692,-0.387693 -0.51231,0 -0.9277,0.18 -1.26,0.553846 -0.31847,0.36 -0.48462,0.844616 -0.48462,1.426154 0,0.581538 0.15231,1.052307 0.45692,1.384615 0.30462,0.332307 0.72,0.498461 1.23231,0.498461 0.42923,0 0.84462,-0.138461 1.21846,-0.429231 z m 4.74923,0.221538 h -0.78923 v -0.775384 h -0.0277 c -0.34616,0.595384 -0.84462,0.886153 -1.52308,0.886153 -0.49846,0 -0.87231,-0.124615 -1.16307,-0.387692 -0.27693,-0.263077 -0.41539,-0.609231 -0.41539,-1.038461 0,-0.927692 0.55385,-1.467692 1.63385,-1.62 l 1.49538,-0.207692 c 0,-0.844615 -0.34615,-1.273846 -1.02461,-1.273846 -0.59539,0 -1.13539,0.207693 -1.62,0.623077 v -0.816923 c 0.48461,-0.304615 1.0523,-0.470769 1.68923,-0.470769 1.16307,0 1.74461,0.623077 1.74461,1.855384 z m -0.78923,-2.506153 -1.20461,0.166154 c -0.36,0.04154 -0.63693,0.138461 -0.83077,0.263077 -0.18,0.138461 -0.27693,0.373846 -0.27693,0.706153 0,0.235385 0.0831,0.443077 0.26308,0.595385 0.16615,0.152307 0.40154,0.221538 0.67846,0.221538 0.40154,0 0.72,-0.138461 0.98308,-0.401538 0.24923,-0.290769 0.38769,-0.636923 0.38769,-1.052308 z m 4.58308,2.464615 c -0.19385,0.09692 -0.42923,0.152307 -0.7477,0.152307 -0.85846,0 -1.30153,-0.484615 -1.30153,-1.453845 v -2.935384 h -0.84462 v -0.678461 h 0.84462 V 52.18461 l 0.80307,-0.249231 v 1.467692 h 1.24616 v 0.678461 h -1.24616 v 2.796922 c 0,0.332308 0.0554,0.567692 0.16616,0.706154 0.11077,0.152307 0.30461,0.221538 0.56769,0.221538 0.19384,0 0.36,-0.05539 0.51231,-0.166154 z m 1.46769,-6.175383 c -0.15231,0 -0.26308,-0.04154 -0.37385,-0.138461 -0.0969,-0.09692 -0.13846,-0.221539 -0.13846,-0.373846 0,-0.152308 0.0415,-0.276923 0.13846,-0.373846 0.11077,-0.09692 0.22154,-0.138462 0.37385,-0.138462 0.13846,0 0.26307,0.04154 0.37384,0.138462 0.0969,0.09692 0.15231,0.221538 0.15231,0.373846 0,0.138461 -0.0554,0.263076 -0.15231,0.359999 -0.11077,0.09692 -0.23538,0.152308 -0.37384,0.152308 z m 0.38769,6.216921 h -0.80308 v -4.956921 h 0.80308 z m 3.66923,0.110769 c -0.73385,0 -1.31538,-0.221538 -1.74462,-0.692307 -0.44307,-0.456923 -0.66461,-1.08 -0.66461,-1.841538 0,-0.830769 0.23538,-1.481538 0.69231,-1.952307 0.44307,-0.470769 1.06615,-0.706154 1.84153,-0.706154 0.73385,0 1.31539,0.235385 1.73077,0.692308 0.41539,0.456923 0.62308,1.079999 0.62308,1.883076 0,0.803077 -0.23538,1.426153 -0.67846,1.910769 -0.44308,0.470769 -1.03846,0.706153 -1.8,0.706153 z m 0.0692,-4.527691 c -0.51231,0 -0.91385,0.18 -1.21846,0.526154 -0.29077,0.346154 -0.44308,0.830769 -0.44308,1.44 0,0.581538 0.15231,1.052307 0.45693,1.398461 0.29076,0.332307 0.6923,0.498461 1.20461,0.498461 0.51231,0 0.9,-0.166154 1.17692,-0.498461 0.27693,-0.332308 0.41539,-0.803077 0.41539,-1.412308 0,-0.623076 -0.13846,-1.107691 -0.41539,-1.439999 -0.27692,-0.346154 -0.66461,-0.512308 -1.17692,-0.512308 z m 7.78154,4.416922 h -0.78923 v -2.824614 c 0,-1.066154 -0.3877,-1.592308 -1.14923,-1.592308 -0.40154,0 -0.73385,0.152308 -0.98308,0.456923 -0.26308,0.29077 -0.40154,0.678462 -0.40154,1.135385 v 2.824614 h -0.78923 v -4.956921 h 0.78923 v 0.816922 h 0.0277 c 0.37385,-0.623076 0.91385,-0.941538 1.62,-0.941538 0.54,0 0.95539,0.18 1.24616,0.526154 0.29076,0.36 0.42923,0.858461 0.42923,1.523076 z"
     class="fil2" /><path
     style="fill:#fefefe;fill-rule:nonzero;stroke-width:1.38461494"
     inkscape:connector-curvature="0"
     id="path13"
     d="m 283.21842,21.196928 c 0.63692,0 1.24615,0.152308 1.84154,0.470769 0.59538,0.332308 1.05231,0.789231 1.39846,1.384615 0.33231,0.595384 0.49846,1.218461 0.49846,1.86923 0,0.650769 -0.16615,1.26 -0.49846,1.855384 -0.33231,0.595385 -0.78923,1.052307 -1.38462,1.384615 -0.58153,0.332308 -1.20461,0.484615 -1.85538,0.484615 -0.63692,0 -1.26,-0.152307 -1.85538,-0.484615 -0.59539,-0.332308 -1.05231,-0.78923 -1.38462,-1.384615 -0.31846,-0.595384 -0.48461,-1.204615 -0.48461,-1.855384 0,-0.650769 0.16615,-1.273846 0.49846,-1.86923 0.3323,-0.595384 0.80307,-1.052307 1.39846,-1.384615 0.59538,-0.318461 1.20461,-0.470769 1.82769,-0.470769 z m 0,0.609231 c -0.52615,0 -1.03846,0.138461 -1.52308,0.401538 -0.49846,0.276923 -0.88615,0.650769 -1.16307,1.14923 -0.29077,0.512308 -0.42923,1.024615 -0.42923,1.564615 0,0.54 0.13846,1.052307 0.41538,1.550769 0.27692,0.484615 0.66462,0.872307 1.16308,1.14923 0.48461,0.276923 1.01077,0.415385 1.53692,0.415385 0.54,0 1.05231,-0.138462 1.55077,-0.415385 0.49846,-0.276923 0.88615,-0.664615 1.14923,-1.14923 0.27692,-0.498462 0.41538,-1.010769 0.41538,-1.550769 0,-0.54 -0.13846,-1.052307 -0.41538,-1.564615 -0.27692,-0.498461 -0.66462,-0.872307 -1.16308,-1.14923 -0.49846,-0.263077 -1.01077,-0.401538 -1.53692,-0.401538 z m -1.63385,5.178459 v -4.015383 h 1.38462 c 0.47077,0 0.80308,0.04154 1.02461,0.110769 0.2077,0.08308 0.37385,0.207693 0.49847,0.387693 0.12461,0.193846 0.19384,0.387692 0.19384,0.595384 0,0.290769 -0.11077,0.54 -0.31846,0.761538 -0.20769,0.221539 -0.48461,0.332308 -0.83077,0.36 0.13846,0.06923 0.24923,0.138461 0.33231,0.221538 0.16615,0.152308 0.36,0.415385 0.59538,0.789231 l 0.49846,0.78923 h -0.78923 l -0.36,-0.636922 c -0.27692,-0.498462 -0.5123,-0.803077 -0.67846,-0.927692 -0.12461,-0.09692 -0.29077,-0.138462 -0.52615,-0.138462 h -0.37385 v 1.703076 z m 0.65077,-2.256922 h 0.78923 c 0.37385,0 0.62308,-0.05539 0.76154,-0.166154 0.13846,-0.110769 0.20769,-0.263077 0.20769,-0.443076 0,-0.124616 -0.0277,-0.221539 -0.0969,-0.318462 -0.0692,-0.09692 -0.15231,-0.166154 -0.27692,-0.207692 -0.11077,-0.04154 -0.33231,-0.06923 -0.65077,-0.06923 h -0.73385 z"
     class="fil3" /></g>
</svg>